<svg width="133" height="120" viewBox="0 0 133 120" fill="none" xmlns="http://www.w3.org/2000/svg">
<path d="M128.496 4.56885V79.1541C128.496 101.676 110.172 120 87.6503 120C65.1284 120 46.8044 101.676 46.8044 79.1541V46.756C46.8044 38.6391 40.2028 32.0375 32.0859 32.0375H4.56494V5.91006H32.0859C54.6077 5.91006 72.9318 24.2341 72.9318 46.756V79.1541C72.9318 87.271 79.5334 93.8725 87.6503 93.8725C95.7673 93.8725 102.369 87.271 102.369 79.1541V4.56885H128.496Z" fill="#E3E7E8"/>
<path d="M128.496 4.56885V79.1541C128.496 101.676 110.172 120 87.6503 120C65.1284 120 46.8044 101.676 46.8044 79.1541V46.756C46.8044 38.6391 40.2028 32.0375 32.0859 32.0375H4.56494V18.9738H32.0859C47.3966 18.9738 59.8681 31.4279 59.8681 46.756V79.1541C59.8681 94.4822 72.3222 106.936 87.6503 106.936C102.961 106.936 115.433 94.4822 115.433 79.1541V4.56885H128.496Z" fill="#BDC3C7"/>
<path d="M9.12197 1.96631H0V35.9651H9.12197V1.96631Z" fill="#222222"/>
<path d="M33.2045 1.96631H24.0825V35.9651H33.2045V1.96631Z" fill="#222222"/>
<path d="M9.12197 21.1372H0V35.9654H9.12197V21.1372Z" fill="#222222"/>
<path d="M3.4401 1.96631H0V35.9651H3.4401V1.96631Z" fill="#FFB700"/>
<path d="M3.4401 21.1372H0V35.9654H3.4401V21.1372Z" fill="#FFB700"/>
<path d="M33.2045 21.1372H24.0825V35.9654H33.2045V21.1372Z" fill="#222222"/>
<path d="M76.9937 46.1328H42.9949V55.2565H76.9937V46.1328Z" fill="#222222"/>
<path d="M56.5045 46.1328H42.9949V55.2565H56.5045V46.1328Z" fill="#222222"/>
<path d="M132.428 0H98.4292V9.12371H132.428V0Z" fill="#222222"/>
<path d="M132.428 0H118.034V9.12371H132.428V0Z" fill="#222222"/>
<path d="M132.428 0H98.4292V3.252H132.428V0Z" fill="#FFB700"/>
<path d="M132.428 0H118.034V3.252H132.428V0Z" fill="#FFB700"/>
</svg>
