<svg width="106" height="101" viewBox="0 0 106 101" fill="none" xmlns="http://www.w3.org/2000/svg">
<path d="M4.98041 99.1906L92.6879 37.579L88.1925 31.1996L76.2171 26.6109L71.0875 19.5786L0 92.0837L4.98041 99.1906Z" fill="#827A7D"/>
<path d="M92.6879 37.579L91.606 38.3438L91.1397 38.6795L88.92 40.2277L88.5096 40.5262L86.2526 42.1117L85.8235 42.4102L83.5852 43.9957L83.1561 44.2755L80.8991 45.861L80.4701 46.1595L78.2317 47.745L77.8027 48.0434L75.5643 49.629L75.1352 49.9274L72.8782 51.4943L72.4492 51.7927L70.2108 53.3783L69.7818 53.6767L67.5434 55.2622L67.1143 55.542L64.8573 57.1276L64.4283 57.426L62.1899 59.0115L61.7609 59.31L59.5225 60.8955L59.0934 61.194L56.8364 62.7609L56.4074 63.0593L54.169 64.6448L53.74 64.9433L51.4829 66.5288L51.0726 66.8273L48.8155 68.3941L48.3865 68.6926L46.1481 70.2781L45.7191 70.5766L43.462 72.1621L43.0517 72.4605L40.7946 74.0274L40.3656 74.3259L38.1272 75.9114L37.6982 76.2098L35.4411 77.7954L35.0308 78.0938L32.7737 79.6607L32.3447 79.9591L30.1063 81.5447L29.6773 81.8431L27.4203 83.4286L27.0099 83.7271L24.7528 85.3126L24.3238 85.6111L22.0854 87.1779L21.6564 87.4764L19.3994 89.0619L18.989 89.3604L16.7319 90.9459L16.3029 91.2443L14.0645 92.8112L13.6355 93.1097L11.3785 94.6952L10.9681 94.9936L8.71106 96.5792L8.28203 96.8776L6.52863 98.1087L5.61462 98.7429L4.98041 99.1906L6.24883 101L6.45401 98.9668L8.43126 99.4704L8.67375 96.9709L11.1173 97.5864L11.3412 95.0869L13.7847 95.7025L14.0272 93.2216L16.4521 93.8371L16.6946 91.3376L19.1382 91.9532L19.3621 89.4536L21.8056 90.0692L22.0481 87.5697L24.473 88.2039L24.7155 85.7043L27.1591 86.3199L27.3829 83.8204L29.8265 84.4359L30.069 81.9364L32.4939 82.5706L32.7364 80.0711L35.1613 80.6866L35.4038 78.1871L37.8474 78.8026L38.0899 76.3031L40.5148 76.9373L40.7573 74.4378L43.2009 75.0533L43.4247 72.5538L45.8683 73.1694L46.1108 70.6698L48.5357 71.304L48.7782 68.8045L51.2218 69.4201L51.4456 66.9205L53.8892 67.5361L54.1317 65.0365L56.5566 65.6708L56.7991 63.1712L59.224 63.7868L59.4665 61.2872L61.9101 61.9028L62.1526 59.4033L64.5775 60.0375L64.82 57.5379L67.2636 58.1535L67.4874 55.654L69.931 56.2695L70.1735 53.77L72.5984 54.3855L72.8409 51.9047L75.2845 52.5202L75.5269 50.0207L77.9519 50.6362L78.1944 48.1367L80.6193 48.7523L80.8618 46.2527L83.3054 46.8869L83.5292 44.3874L85.9728 45.003L86.2153 42.5034L88.6402 43.119L88.8827 40.6195L91.3262 41.2537L91.5501 38.7914L93.9564 39.3883L92.6879 37.579Z" fill="#72656A"/>
<path d="M63.6822 27.1332L68.8678 35.7323L89.7594 39.6495L92.6879 37.579L89.9086 33.7551L65.8273 24.988L63.6822 27.1332Z" fill="#685C61"/>
<path d="M86.8868 20.5859C90.1511 23.8688 93.4154 26.7041 96.344 28.8306L102.742 22.5072C100.653 19.56 97.8549 16.2583 94.6092 12.9754C91.0838 9.41259 87.5583 6.40942 84.4432 4.22699L78.2503 10.3266C80.3955 13.4417 83.3613 17.0231 86.8868 20.5859Z" fill="#3F3F3F"/>
<path d="M91.3822 20.1941C87.8568 16.6314 84.8909 13.0686 82.7458 9.93486L86.7935 5.94306C85.9914 5.32751 85.208 4.7306 84.4619 4.20831L78.2503 10.3266C80.3955 13.4603 83.3613 17.0231 86.8868 20.5859C90.1511 23.8688 93.4154 26.7041 96.344 28.8306L98.5264 26.6855C96.2321 24.8388 93.8071 22.6564 91.3822 20.1941Z" fill="#282828"/>
<path d="M105.279 21.0149L104.757 20.474C104.085 19.8024 103.003 19.8024 102.332 20.4553L91.4382 31.2182C88.1365 30.1923 80.8431 27.9166 80.2835 27.5995C80.2835 27.5995 74.1839 23.4025 71.9082 18.8138L86.4391 4.43217C87.1106 3.76066 87.1106 2.67877 86.4578 2.00725L85.9355 1.46631C85.2639 0.794792 84.1821 0.776138 83.5105 1.44766L63.5889 21.1641C62.9174 21.8356 62.9174 22.9175 63.5702 23.589L70.3414 34.1095L85.4132 37.1686L90.3563 38.1759L105.242 23.4585C105.932 22.7683 105.932 21.6864 105.279 21.0149Z" fill="#FFB700"/>
<path d="M91.4755 35.7323L86.5324 34.725L71.4419 31.6846L64.6708 21.1641C64.4843 20.9589 64.3537 20.7351 64.2604 20.4926L63.5889 21.1641C62.9174 21.8356 62.8987 22.9175 63.5702 23.5891L70.3414 34.1095L85.4132 37.1686L90.3563 38.1759L105.242 23.4585C105.727 22.9735 105.857 22.302 105.652 21.7051L91.4755 35.7323Z" fill="#FFB700"/>
<path d="M69.8937 25.8275C68.9797 26.2751 67.8978 26.0886 67.189 25.3611C66.7413 24.9135 66.4988 24.3166 66.4988 23.6823C66.4988 23.0481 66.76 22.4699 67.2076 22.0222C67.3942 21.8357 67.5994 21.6864 67.8418 21.5745C68.7559 21.1268 69.8377 21.3134 70.5466 22.0409C71.4606 22.9549 71.4419 24.4658 70.5279 25.3798C70.3414 25.5663 70.1362 25.7155 69.8937 25.8275Z" fill="#FFB700"/>
<path d="M70.2108 22.3579C70.9383 23.104 70.9383 24.2978 70.1921 25.044C69.446 25.7901 68.2522 25.7715 67.5061 25.0253C66.7599 24.2792 66.7786 23.0854 67.5247 22.3393C68.2709 21.6118 69.4833 21.6118 70.2108 22.3579Z" fill="#3F3F3F"/>
<path d="M85.3759 34.6691C84.4619 35.1168 83.38 34.9302 82.6712 34.2027C81.7572 33.2701 81.7572 31.7778 82.6898 30.8638C82.8764 30.6773 83.0815 30.5281 83.324 30.4161C84.238 29.9685 85.3199 30.155 86.0288 30.8825C86.4764 31.3301 86.7189 31.9271 86.7189 32.5613C86.7189 33.1955 86.4578 33.7924 86.0101 34.2214C85.8236 34.4079 85.6184 34.5572 85.3759 34.6691Z" fill="#FFB700"/>
<path d="M85.693 31.1996C86.4391 31.9457 86.4205 33.1395 85.6743 33.8857C84.9282 34.6318 83.7344 34.6131 82.9883 33.867C82.2608 33.1209 82.2608 31.9271 83.0069 31.1809C83.7717 30.4535 84.9655 30.4535 85.693 31.1996Z" fill="#3F3F3F"/>
<path d="M66.7227 19.2988C69.1476 16.2956 71.7404 13.479 74.4078 10.7183C77.0752 7.95765 79.8172 5.27158 82.6712 2.71609L82.6525 2.73474C82.895 2.47359 83.1562 2.26841 83.4546 2.10053C83.7531 1.93265 84.0702 1.80208 84.4246 1.74612C84.7603 1.69016 85.1334 1.76477 85.4319 1.914C85.5811 1.98861 85.7116 2.10053 85.8236 2.21245C85.9355 2.32437 86.0288 2.45494 86.1407 2.58551C86.0101 2.49225 85.8982 2.38033 85.7676 2.30572C85.637 2.2311 85.5065 2.15649 85.3572 2.11918C85.0774 2.02592 84.779 2.02592 84.5178 2.10053C83.9769 2.26841 83.5106 2.71609 83.1562 3.14511L83.1375 3.16376C80.582 6.03636 77.9333 8.8157 75.2099 11.5204C72.4865 14.2065 69.6885 16.8366 66.7227 19.2988Z" fill="#FFB700"/>
<path d="M91.9978 31.9457C92.7066 30.9571 93.4714 30.0244 94.2548 29.1104C95.0382 28.1964 95.859 27.3197 96.6984 26.4617C98.3772 24.7269 100.112 23.0668 101.959 21.5185L101.94 21.5372C102.294 21.1828 102.686 20.8843 103.152 20.6978C103.376 20.6045 103.656 20.5486 103.899 20.6045C104.16 20.6418 104.365 20.8097 104.495 20.9963C104.309 20.8657 104.085 20.8097 103.88 20.8284C103.675 20.847 103.488 20.9403 103.32 21.0709C102.985 21.3134 102.686 21.6491 102.444 21.9849L102.425 22.0035C100.877 23.8502 99.2166 25.585 97.4818 27.2637C96.6238 28.1031 95.7284 28.9052 94.8144 29.7073C93.9191 30.4721 92.9864 31.2369 91.9978 31.9457Z" fill="#FFB700"/>
<path d="M1.17514 92.3262L3.97313 96.2993L3.37622 91.9531L64.4096 30.0617L63.5702 28.8492L1.17514 92.3262Z" fill="#999396"/>
<path d="M26.8793 83.8204L34.0795 78.7467L37.493 53.8446L29.9198 61.567L26.8793 83.8204Z" fill="#999396"/>
<path d="M55.2509 35.7323L44.1522 47.0548L40.4215 74.3072L50.9793 66.8832L55.2509 35.7323Z" fill="#999396"/>
</svg>
