<svg width="97" height="120" viewBox="0 0 97 120" fill="none" xmlns="http://www.w3.org/2000/svg">
<path d="M68.2032 27.3973L62.8583 33.6662L59.978 30.3854C59.7778 28.7374 59.7161 26.9198 59.7778 25.0099C60.0088 15.5526 62.8429 4.06217 63.5361 1.38209C63.6285 1.01242 63.6901 0.812189 63.6901 0.812189C65.3382 -0.835904 66.4626 0.611953 66.4626 0.611953L67.0788 8.7292C67.048 8.7446 67.0326 8.7754 67.0017 8.79081C64.9686 9.34531 63.4899 11.1936 63.4899 13.3962C63.4899 15.9223 65.446 17.9862 67.9105 18.1557L67.9875 20.3891L68.1108 23.9779L68.2032 27.3973Z" fill="#B1B2B4"/>
<path d="M69.0195 40.2278L67.0941 43.7858L64.3986 48.7609C64.3986 48.7609 58.0372 49.9931 59.1616 43.6318C59.5312 41.537 60.1011 40.1354 60.6865 39.2112C61.8725 37.3167 63.1663 37.3629 63.1663 37.3629L69.0195 40.2278Z" fill="#B1B2B4"/>
<path d="M78.1378 30.3701L75.2574 33.6509L69.9126 27.382L70.0204 24.1166L70.2207 18.1249C72.7005 17.9401 74.6413 15.8761 74.6413 13.3655C74.6413 11.1629 73.1472 9.31457 71.1294 8.76007C71.0986 8.74467 71.0832 8.71387 71.0524 8.69846L71.6685 0.581221C71.6685 0.581221 72.793 -0.851234 74.4411 0.781456C74.4411 0.781456 77.4293 11.8098 78.184 21.8986C78.415 24.933 78.4459 27.8441 78.1378 30.3701Z" fill="#B1B2B4"/>
<path d="M75.3809 48.7609L72.0538 43.3854L70.2825 40.5205L75.9662 37.3167C75.9662 37.3167 77.414 37.1781 78.7849 39.3653C79.3394 40.2586 79.8939 41.5216 80.3098 43.3392C81.8039 49.6389 75.3809 48.7609 75.3809 48.7609Z" fill="#B1B2B4"/>
<path opacity="0.79" d="M62.8583 33.6663L59.978 30.3856C59.7778 28.7375 59.7161 26.9199 59.7778 25.01C61.5491 26.4887 64.1984 26.6273 68.0954 23.978L68.2032 27.3974L62.8583 33.6663Z" fill="#8C979B"/>
<path opacity="0.79" d="M69.0195 40.2276L67.0942 43.7856C65.7541 42.0143 63.7363 40.32 60.6865 39.1956C61.8726 37.3011 63.1664 37.3473 63.1664 37.3473L69.0195 40.2276Z" fill="#8C979B"/>
<path opacity="0.79" d="M78.7849 39.3653C77.1522 39.3653 74.8264 40.1662 72.0538 43.3854L70.2825 40.5205L75.9662 37.3167C75.9508 37.3167 77.3986 37.1781 78.7849 39.3653Z" fill="#8C979B"/>
<path opacity="0.79" d="M75.2574 33.6664L69.9126 27.3974L70.0204 24.1321C71.6839 25.1794 75.088 26.3809 78.184 21.9141C78.415 24.9176 78.4459 27.8441 78.1378 30.3702L75.2574 33.6664Z" fill="#8C979B"/>
<path d="M69.0808 41.9841C73.5894 41.9841 77.2444 38.3292 77.2444 33.8207C77.2444 29.3121 73.5894 25.6572 69.0808 25.6572C64.5722 25.6572 60.9172 29.3121 60.9172 33.8207C60.9172 38.3292 64.5722 41.9841 69.0808 41.9841Z" fill="#62727A"/>
<path d="M69.1272 38.1796C71.5687 38.1796 73.5479 36.2004 73.5479 33.759C73.5479 31.3175 71.5687 29.3384 69.1272 29.3384C66.6857 29.3384 64.7065 31.3175 64.7065 33.759C64.7065 36.2004 66.6857 38.1796 69.1272 38.1796Z" fill="#B1B2B4"/>
<path d="M67.0786 46.0809L61.8416 59.3272C61.8416 59.3272 56.6662 63.5322 53.4469 72.4812C50.1507 81.6458 48.9031 95.8009 57.4363 115.501C57.4363 115.501 57.8522 122.694 50.4588 118.89C43.0653 115.085 38.6447 75.038 50.7668 57.1708C50.7668 57.1708 53.832 53.2894 49.6732 44.402C49.6578 44.3866 49.6578 44.3558 49.6424 44.3404C49.6424 44.3404 49.3344 42.3842 52.6152 42.5999C53.0311 42.6307 57.4363 43.524 58.6686 41.5679L67.0786 46.0809Z" fill="#4D4948"/>
<path d="M50.4434 118.89C43.05 115.085 38.6293 75.0379 50.7514 57.1707C50.7514 57.1707 53.8166 53.2892 49.6578 44.4019C52.1069 45.3722 55.0181 48.807 53.2159 60.2513C52.5074 64.7489 52.6922 68.846 53.447 72.481C50.1507 81.6457 48.9031 95.8008 57.4363 115.501C57.4209 115.501 57.8368 122.694 50.4434 118.89Z" fill="#222222"/>
<path d="M72.8242 46.0809L78.0612 59.3272C78.0612 59.3272 83.2366 63.5322 86.4559 72.4812C89.7521 81.6458 90.9997 95.8009 82.4665 115.501C82.4665 115.501 82.0506 122.694 89.444 118.89C96.8375 115.085 101.258 75.038 89.136 57.1708C89.136 57.1708 86.0708 53.2894 90.2296 44.402C90.245 44.3866 90.245 44.3558 90.2604 44.3404C90.2604 44.3404 90.5685 42.3842 87.2876 42.5999C86.8717 42.6307 82.4665 43.524 81.2342 41.5679L72.8242 46.0809Z" fill="#4D4948"/>
<path d="M89.4591 118.89C96.8526 115.085 101.273 75.0379 89.1511 57.1707C89.1511 57.1707 86.0859 53.2892 90.2447 44.4019C87.7956 45.3722 84.8845 48.807 86.6866 60.2513C87.3951 64.7489 87.2103 68.846 86.4556 72.481C89.7518 81.6457 90.9994 95.8008 82.4662 115.501C82.4816 115.501 82.0657 122.694 89.4591 118.89Z" fill="#222222"/>
<path opacity="0.79" d="M67.9718 20.3739C57.8212 15.9071 65.4303 6.54227 65.4303 6.54227C65.6613 2.53756 64.8604 1.18212 63.5357 1.36695C63.6281 0.997288 63.6898 0.797052 63.6898 0.797052C65.3379 -0.851041 66.4623 0.596816 66.4623 0.596816L67.0784 8.71406C67.0476 8.72946 67.0322 8.76027 67.0014 8.77567C64.9682 9.33017 63.4895 11.1785 63.4895 13.3811C63.4895 15.9071 65.4457 17.9711 67.9102 18.1405L67.9718 20.3739Z" fill="#8C979B"/>
<path opacity="0.79" d="M70.1594 20.3739C80.31 15.9071 72.7009 6.54227 72.7009 6.54227C72.4699 2.53756 73.2708 1.18212 74.5955 1.36695C74.5031 0.997288 74.4415 0.797052 74.4415 0.797052C72.7933 -0.851041 71.6689 0.596816 71.6689 0.596816L71.0528 8.71406C71.0836 8.72946 71.099 8.76027 71.1298 8.77567C73.163 9.33017 74.6417 11.1785 74.6417 13.3811C74.6417 15.9071 72.6855 17.9711 70.221 18.1405L70.1594 20.3739Z" fill="#8C979B"/>
<path d="M19.8634 42.4533C19.769 42.6264 19.7218 42.8309 19.7218 43.0197C19.7218 43.1928 19.7532 43.3501 19.8319 43.5074C20.2724 44.4671 19.3127 45.474 18.3373 45.0964L13.0353 43.0669C12.6262 42.9096 12.3273 42.532 12.2801 42.1072C11.7609 37.6077 10.754 33.8319 9.52687 30.6696C6.41176 22.6302 1.88069 18.7285 0.590591 17.7374C0.354598 17.5486 0.181536 17.2969 0.134338 16.998C-0.699505 12.0579 2.47854 7.66851 6.06563 4.42759C8.04798 2.63407 10.1562 1.18667 11.7767 0.17978C12.7206 -0.402327 13.8849 0.525898 13.5073 1.57998L10.8956 9.10018C10.817 9.33617 10.8012 9.58789 10.8799 9.82388L11.698 12.4827C11.8081 12.8445 12.0913 13.1435 12.4689 13.2693L18.5261 15.2516C18.8879 15.3775 19.2812 15.2988 19.5959 15.0786L21.1849 13.9144C21.3737 13.7728 21.5153 13.584 21.594 13.3637L24.9451 4.31746C25.2755 3.40497 26.5184 3.26338 27.0533 4.0972C27.8399 5.30862 28.4535 6.48856 28.9255 7.62131C31.0966 12.7659 30.3729 16.7305 29.9167 18.3038C29.8223 18.6342 29.8852 18.996 30.0583 19.2792C30.1369 19.3893 30.2156 19.4837 30.3257 19.5624L30.8921 20.0029C31.3484 20.3647 31.49 20.994 31.2068 21.5132L19.8634 42.4533Z" fill="#B1B2B4"/>
<path d="M19.8634 42.4534C19.769 42.6265 19.7218 42.831 19.7218 43.0198C19.7218 43.1929 19.7532 43.3502 19.8319 43.5075C20.2724 44.4672 19.3127 45.4741 18.3373 45.0965L13.0353 43.067C12.6262 42.9097 12.3273 42.5321 12.2801 42.1073C11.7609 37.6078 10.754 33.832 9.52686 30.6697C14.7974 33.5645 23.6707 35.2007 30.0583 19.2793C30.1369 19.3894 30.2156 19.4838 30.3257 19.5625L30.8921 20.003C31.3484 20.3648 31.49 20.9942 31.2068 21.5133L19.8634 42.4534Z" fill="#8C979B"/>
<path d="M24.9765 111.111L23.0729 45.6157C23.0571 45.301 23.0257 44.9864 22.9627 44.6717C22.8841 44.2784 22.7739 43.9008 22.6166 43.539L21.1377 38.2371C20.3668 36.3649 18.5103 36.302 16.5122 35.9558C13.9321 35.5153 11.6193 33.061 10.5023 33.061C10.0618 33.061 9.81004 33.4386 9.81004 34.4612L9.10206 110.371L9.07059 113.99C9.03913 117.246 11.6665 119.905 14.9232 119.937L19.1082 119.984C20.5556 120 21.8929 119.496 22.9155 118.631C24.2686 117.514 25.1181 115.799 25.0552 113.911L24.9765 111.111ZM16.9056 114.792C15.5525 114.792 14.467 113.706 14.467 112.353C14.467 111.693 14.7187 111.095 15.1435 110.67C15.584 110.214 16.2133 109.915 16.9056 109.915C17.6765 109.915 18.3687 110.277 18.8092 110.827C19.1396 111.252 19.3442 111.771 19.3442 112.353C19.3442 113.691 18.2429 114.792 16.9056 114.792Z" fill="#FFB700"/>
<path d="M25.0555 113.927C25.1184 115.83 24.2689 117.545 22.9158 118.646H22.9001C22.1607 118.033 21.6257 117.215 21.374 116.287L15.0337 93.8046C14.9078 93.3798 14.8606 92.9236 14.8606 92.4831L15.1281 48.6677C15.1438 45.4583 18.2904 43.177 21.3425 44.1524L22.963 44.6716C23.026 44.9863 23.0574 45.3009 23.0732 45.6156L24.9768 111.11L25.0555 113.927Z" fill="#FFB700"/>
<path d="M8.31571 33.6586C8.11118 34.3823 8.5045 35.1375 9.21248 35.3735L21.7359 39.5426C22.4596 39.7786 23.2462 39.401 23.4979 38.6773L23.5137 38.6458C23.7811 37.9064 23.3721 37.104 22.6326 36.8523L10.0935 32.7146C9.33834 32.4787 8.53597 32.9034 8.31571 33.6586Z" fill="#FFB700"/>
<path d="M7.81206 56.2664C7.79632 57.0687 8.42564 57.7452 9.22802 57.7924L23.4033 58.5161C24.2214 58.5633 24.9137 57.934 24.9766 57.1159V57.0687C25.0396 56.2349 24.3945 55.5112 23.5449 55.464L9.36961 54.7718C8.53577 54.756 7.82779 55.4325 7.81206 56.2664Z" fill="#FFB700"/>
<path d="M7.73343 68.8841C7.7177 69.7336 8.37848 70.4259 9.22805 70.4731L24.0642 71.2282C24.9137 71.2754 25.6532 70.6304 25.7161 69.7651V69.7179C25.779 68.8369 25.1025 68.0817 24.2215 68.0345L9.38538 67.3108C8.50434 67.2951 7.74916 68.003 7.73343 68.8841Z" fill="#FFB700"/>
<path opacity="0.79" d="M3.10781 16.3531C4.52377 17.6589 7.82768 20.947 9.95162 24.8644C10.5495 25.9657 12.1857 25.8241 12.5633 24.6127L14.1838 19.4209C14.3883 18.7444 14.0736 18.0207 13.4443 17.7218L4.8227 13.6156C4.05179 13.2537 3.13928 13.6313 2.85609 14.4494L2.71449 14.8742C2.54143 15.3934 2.69876 15.9755 3.10781 16.3531Z" fill="#8C979B"/>
<g opacity="0.79">
<path d="M18.5261 20.7267L15.3952 27.004C15.2536 27.2715 14.939 27.3974 14.6558 27.2872C14.3569 27.1614 14.2153 26.8153 14.3411 26.5163L17.1731 20.0974C17.2989 19.7985 17.645 19.6726 17.944 19.7985L18.2429 19.9244C18.5418 20.066 18.6677 20.4278 18.5261 20.7267Z" fill="#8C979B"/>
<path d="M20.65 21.6389L17.5191 27.9005C17.3933 28.1679 17.0786 28.2781 16.7954 28.1679C16.4965 28.0421 16.3706 27.7117 16.4965 27.4128L19.3284 21.0253C19.4543 20.7421 19.7847 20.6163 20.0679 20.7421L20.3668 20.868C20.6657 21.0096 20.7916 21.3557 20.65 21.6389Z" fill="#8C979B"/>
<path d="M22.9003 22.6146L19.7852 28.8447C19.6593 29.0964 19.3604 29.2066 19.0929 29.1122C18.8097 29.002 18.6839 28.6717 18.794 28.3885L21.6102 22.0325C21.736 21.765 22.0507 21.6392 22.3182 21.7493L22.6171 21.8752C22.916 22.001 23.0419 22.3314 22.9003 22.6146Z" fill="#8C979B"/>
</g>
<path d="M24.9767 111.11C24.5676 111.094 24.1428 111.063 23.718 111.047C22.6482 110.654 20.3669 108.64 20.5715 98.4455L20.5243 98.6343V86.6303C20.5243 85.6077 20.1152 84.6794 19.4387 84.0187C18.7622 83.3421 17.8497 82.9331 16.827 82.9331C14.7818 82.9331 13.1298 84.585 13.1298 86.6303V100.176C12.941 108.687 10.7699 110.166 9.85737 110.418C9.60565 110.402 9.35392 110.402 9.11793 110.387V110.796L9.08646 114.005C9.055 117.262 11.6824 119.921 14.9391 119.952L19.124 119.999C21.4368 120.015 23.4506 118.709 24.4417 116.79C24.8823 115.94 25.1183 114.965 25.0868 113.926L24.9767 111.11ZM15.1436 110.67C15.5841 110.213 16.2135 109.915 16.9057 109.915C17.6766 109.915 18.3689 110.276 18.8094 110.827C19.1398 111.252 19.3443 111.771 19.3443 112.353C19.3443 113.706 18.2587 114.792 16.9057 114.792C15.5527 114.792 14.4671 113.706 14.4671 112.353C14.4671 111.692 14.7188 111.094 15.1436 110.67Z" fill="#222222"/>
<path d="M24.4098 116.79C23.4186 118.709 21.4206 120.031 19.0921 119.999L14.9071 119.952C11.6504 119.921 9.03878 117.262 9.05451 114.005L9.08598 110.796C12.327 115.154 17.1569 117.844 24.4098 116.79Z" fill="#4D4948"/>
<path opacity="0.63" d="M28.9098 7.62131C27.7928 7.07067 26.8331 7.35386 26.188 8.83272C22.4121 17.3283 20.5242 16.3844 20.5242 16.3844C4.162 14.8111 10.8799 9.82388 10.1405 5.37155C9.88876 3.90841 8.20535 3.84548 6.06567 4.42759C8.04802 2.63407 10.1562 1.18667 11.7767 0.17978C12.7207 -0.402327 13.8849 0.525898 13.5073 1.57998L10.8957 9.10018C10.817 9.33617 10.8013 9.58789 10.8799 9.82388L11.698 12.4827C11.8082 12.8445 12.0914 13.1435 12.469 13.2693L18.5261 15.2516C18.888 15.3775 19.2813 15.2988 19.5959 15.0786L21.185 13.9144C21.3738 13.7728 21.5154 13.584 21.594 13.3637L24.9451 4.31746C25.2755 3.40497 26.5184 3.26337 27.0533 4.0972C27.8242 5.32435 28.4378 6.50429 28.9098 7.62131Z" fill="#596970"/>
</svg>
