<svg width="110" height="122" viewBox="0 0 110 122" fill="none" xmlns="http://www.w3.org/2000/svg">
<path d="M65.9572 9.01549L75.7584 26.6328C75.9588 26.9929 75.9099 27.4379 75.639 27.7503L74.6354 28.9015L52.2176 54.4178C51.9467 54.7302 51.8978 55.1751 52.0982 55.5353L56.5122 63.4693C56.6439 63.7059 56.6715 63.9736 56.603 64.2138C56.5345 64.454 56.3699 64.6669 56.1332 64.7985C55.6599 65.0619 55.0673 64.893 54.8039 64.4196L50.138 56.0329C49.3354 54.5659 50.211 53.7419 50.211 53.7419L50.6477 53.2429L73.1809 27.5951C73.4518 27.2827 73.5007 26.8377 73.3003 26.4776L65.0964 11.7313C64.8331 11.258 64.2405 11.089 63.7671 11.3524L51.83 17.9935C51.5933 18.1252 51.3257 18.1528 51.0855 18.0843C50.8452 18.0158 50.6324 17.8513 50.5007 17.6146C50.2374 17.1412 50.4063 16.5486 50.8797 16.2853L64.6485 8.62512C65.1013 8.37321 65.6939 8.54213 65.9572 9.01549Z" fill="#62727A"/>
<path d="M59.787 17.4477L9.46583 45.4434C8.15893 46.1705 6.50932 45.7003 5.78224 44.3934L4.17924 41.5121C3.45216 40.2052 3.92242 38.5556 5.22933 37.8285L55.5505 9.83278C56.8574 9.10569 58.507 9.57592 59.2341 10.8828L60.8371 13.7641C61.5641 15.071 61.0939 16.7206 59.787 17.4477Z" fill="#4D4948"/>
<path d="M81.3206 95.7805L81.174 95.5656L61.6085 66.5497C60.6638 64.8518 61.1012 67.4787 59.3612 66.9914C58.8491 67.4515 59.6472 67.1422 57.9287 68.0983C54.5019 70.0048 54.1689 69.7453 54.3283 70.3709L68.6019 101.913L69.0051 102.807C70.2474 105.04 72.5494 106.32 74.9457 106.388C75.4992 106.269 76.0493 106.071 76.5844 105.773L79.8637 103.989C80.3885 103.697 80.8481 103.361 81.2471 102.963C82.496 100.921 82.666 98.32 81.4969 96.0732L81.5026 96.0835C81.474 96.032 81.4453 95.9806 81.4167 95.9291L81.3206 95.7805ZM76.233 101.508C75.1833 102.092 73.9285 101.847 73.4304 100.952C73.1899 100.52 73.1725 100.004 73.3415 99.5323C73.5196 99.029 73.9002 98.5747 74.4353 98.277C75.0425 97.9392 75.7093 97.8782 76.2653 98.054C76.6771 98.1887 77.0261 98.4527 77.2379 98.8334C77.736 99.7287 77.2929 100.918 76.233 101.508Z" fill="#4D4948"/>
<path d="M81.3206 95.7805L81.1843 95.5599L81.174 95.5656C80.8493 95.7328 80.5085 95.8954 80.1735 96.0683C79.1969 96.2748 76.6723 95.9275 73.0699 89.0648L73.0974 89.2112L68.6663 81.2463C68.2884 80.5672 67.6317 80.1375 66.8549 79.9767C66.0839 79.8262 65.209 79.9491 64.4166 80.3899C62.8216 81.2773 62.1376 83.0998 62.8875 84.4478L67.8912 93.4417C70.8902 99.1713 69.7361 101.094 69.1176 101.653C68.9472 101.735 68.7723 101.832 68.6122 101.907C68.5916 101.919 68.5608 101.936 68.5402 101.948L69.0211 102.812C70.2634 105.045 72.5655 106.325 74.9617 106.393C75.5152 106.274 76.0653 106.075 76.6004 105.778L79.8797 103.994C80.4045 103.702 80.8641 103.365 81.263 102.968C82.512 100.926 82.682 98.3246 81.5129 96.0778L81.3206 95.7805ZM76.233 101.508C75.1833 102.092 73.9285 101.847 73.4304 100.952C73.1899 100.52 73.1725 100.004 73.3415 99.5324C73.5196 99.029 73.9002 98.5747 74.4353 98.277C75.0425 97.9392 75.7093 97.8782 76.2652 98.054C76.6771 98.1887 77.0261 98.4527 77.2379 98.8335C77.736 99.7287 77.2929 100.919 76.233 101.508Z" fill="#241F23"/>
<path d="M54.6621 62.5175L50.5493 64.7653C50.0965 65.0172 49.9321 65.5937 50.184 66.0465L50.5218 66.6536C50.5733 66.7463 50.6454 66.8274 50.7278 66.9029L53.892 69.6837C54.1884 69.95 54.6174 69.9944 54.9672 69.7997L57.3752 68.4601L58.3014 67.9448L60.7094 66.6051C61.0593 66.4105 61.2478 66.0226 61.1778 65.6304L60.4833 61.4755C60.4627 61.3657 60.4317 61.2616 60.3802 61.169L60.0424 60.5619C59.7905 60.1091 59.214 59.9447 58.7612 60.1966L54.6621 62.5175Z" fill="#4D4948"/>
<path d="M54.588 7.13409L61.6298 19.7914C62.4542 21.2732 61.9246 23.131 60.4427 23.9554L14.8553 49.3176C13.3734 50.142 11.5156 49.6124 10.6912 48.1306L3.64945 35.4733C2.82505 33.9915 3.35466 32.1337 4.83651 31.3093L50.424 5.9471C51.9058 5.12268 53.7636 5.65226 54.588 7.13409Z" fill="#FFB700"/>
<path d="M49.8065 6.2906L55.5888 16.684C56.4132 18.1658 55.8836 20.0236 54.4017 20.848L9.43171 45.8667L3.64945 35.4733C2.82505 33.9915 3.35466 32.1337 4.83651 31.3093L49.8065 6.2906Z" fill="#FFC940"/>
<path d="M61.1356 65.6269L53.8498 69.6803L54.4108 70.6888L61.6966 66.6354L61.1356 65.6269Z" fill="#FFB700"/>
<path d="M7.3269 29.9238L10.1894 35.069L14.4259 42.6839L14.5977 42.9926L17.3457 47.9321L18.7349 47.1592L15.9869 42.2198L15.8151 41.911L11.5786 34.2961L8.71614 29.1509L7.3269 29.9238Z" fill="#FFB700"/>
<path d="M13.5013 26.4886L16.3638 31.6339L20.6003 39.2488L20.7721 39.5575L23.5201 44.4969L24.9093 43.7241L22.1613 38.7846L21.9896 38.4759L17.7531 30.861L14.8906 25.7158L13.5013 26.4886Z" fill="#FFB700"/>
<path d="M20.2932 22.7101L23.1557 27.8553L27.3922 35.4703L27.564 35.779L30.312 40.7184L31.7012 39.9455L28.9532 35.0061L28.7815 34.6974L24.5449 27.0824L21.6824 21.9372L20.2932 22.7101Z" fill="#FFB700"/>
<path d="M26.4675 19.275L29.33 24.4203L33.5665 32.0352L33.7383 32.3439L36.4863 37.2833L37.8755 36.5104L35.1275 31.571L34.9558 31.2623L30.7193 23.6474L27.8568 18.5021L26.4675 19.275Z" fill="#FFB700"/>
<path d="M33.8047 15.1931L36.6672 20.3383L40.9037 27.9532L41.0754 28.2619L43.8234 33.2014L45.2127 32.4285L42.4647 27.489L42.2929 27.1803L38.0564 19.5654L35.1939 14.4202L33.8047 15.1931Z" fill="#FFB700"/>
<path d="M39.979 11.7581L42.8415 16.9033L47.078 24.5182L47.2498 24.8269L49.9978 29.7664L51.387 28.9935L48.639 24.054L48.4672 23.7453L44.2307 16.1304L41.3682 10.9852L39.979 11.7581Z" fill="#FFB700"/>
<path d="M46.7709 7.97943L49.6334 13.1247L53.8699 20.7396L54.0416 21.0483L56.7896 25.9877L58.1789 25.2148L55.4309 20.2754L55.2591 19.9667L51.0226 12.3518L48.1601 7.20654L46.7709 7.97943Z" fill="#FFB700"/>
</svg>
