<svg width="185" height="123" viewBox="0 0 185 123" fill="none" xmlns="http://www.w3.org/2000/svg">
<path d="M78.1031 22.9363L48.2673 29.625L52.5022 48.5151L82.338 41.8264L78.1031 22.9363Z" fill="#B2BFC6"/>
<path d="M74.5588 24.5857L71.99 39.4676L53.4853 43.616L54.508 48.1779L75.8563 43.392L74.8336 38.8301L74.7474 38.8495L74.5588 24.5857Z" fill="#86949B"/>
<path d="M38.028 43.5947L4.72395 51.0609L3.0782 49.2705L3.80689 46.9702L37.111 39.504L38.028 43.5947Z" fill="#B2BFC6"/>
<path d="M6.62924 50.881C6.6269 50.9715 6.57668 51.0503 6.48571 51.0482L5.53059 51.1273C5.43962 51.1252 5.36059 51.0755 5.36293 50.985L5.03204 46.3804C5.03438 46.2899 5.0846 46.2112 5.17557 46.2133L6.13069 46.1341C6.22166 46.1362 6.30069 46.186 6.30315 46.2979L6.62924 50.881Z" fill="#505E63"/>
<path d="M9.62368 50.2097C9.62134 50.3002 9.57112 50.3789 9.48015 50.3768L8.50349 50.4608C8.41252 50.4587 8.33349 50.409 8.33583 50.3185L8.00494 45.7139C8.00728 45.6234 8.0575 45.5447 8.14847 45.5468L9.10359 45.4676C9.19456 45.4697 9.27359 45.5195 9.27605 45.6314L9.62368 50.2097Z" fill="#505E63"/>
<path d="M12.5963 49.5432C12.594 49.6337 12.5438 49.7124 12.4528 49.7103L11.4761 49.7943C11.3852 49.7922 11.3061 49.7425 11.3085 49.652L10.9561 45.0523C10.9584 44.9618 11.0086 44.883 11.0996 44.8851L12.0547 44.806C12.1457 44.8081 12.2247 44.8578 12.2272 44.9697L12.5963 49.5432Z" fill="#505E63"/>
<path d="M15.5692 48.8767C15.5669 48.9672 15.5167 49.0459 15.4257 49.0438L14.449 49.1278C14.3581 49.1257 14.279 49.0759 14.2814 48.9854L13.9505 44.3809C13.9528 44.2904 14.0031 44.2117 14.094 44.2138L15.0491 44.1346C15.1401 44.1367 15.2191 44.1865 15.2216 44.2984L15.5692 48.8767Z" fill="#505E63"/>
<path d="M18.5421 48.2102C18.5398 48.3007 18.4896 48.3794 18.3986 48.3773L17.4219 48.4613C17.331 48.4592 17.2519 48.4094 17.2543 48.3189L16.9234 43.7144C16.9257 43.6239 16.976 43.5452 17.0669 43.5473L18.022 43.4681C18.113 43.4702 18.192 43.52 18.1945 43.6319L18.5421 48.2102Z" fill="#505E63"/>
<path d="M21.5147 47.5441C21.5124 47.6346 21.4622 47.7133 21.3712 47.7112L20.4161 47.7904C20.3251 47.7883 20.2461 47.7385 20.2484 47.648L19.896 43.0484C19.8983 42.9579 19.9486 42.8791 20.0395 42.8812L20.9946 42.8021C21.0856 42.8042 21.1646 42.8539 21.1671 42.9658L21.5147 47.5441Z" fill="#505E63"/>
<path d="M24.4876 46.8776C24.4853 46.9681 24.4351 47.0468 24.3441 47.0447L23.389 47.1239C23.298 47.1218 23.219 47.072 23.2213 46.9815L22.8904 42.377C22.8928 42.2865 22.943 42.2078 23.034 42.2099L23.9891 42.1307C24.0801 42.1328 24.1591 42.1826 24.1616 42.2945L24.4876 46.8776Z" fill="#505E63"/>
<path d="M27.482 46.2062C27.4797 46.2967 27.4295 46.3755 27.3385 46.3734L26.3834 46.4525C26.2924 46.4504 26.2134 46.4007 26.2157 46.3102L25.8633 41.7105C25.8656 41.62 25.9158 41.5412 26.0068 41.5433L26.9619 41.4642C27.0529 41.4663 27.1319 41.516 27.1344 41.628L27.482 46.2062Z" fill="#505E63"/>
<path d="M47.9837 42.6897C48.1805 43.5678 47.6281 44.434 46.7449 44.632L30.5668 48.2589C29.6835 48.4569 28.8142 47.9095 28.6173 47.0313L27.1961 40.6918C26.9993 39.8137 27.5517 38.9476 28.4349 38.7496L44.6131 35.1227C45.4963 34.9247 46.3656 35.4721 46.5625 36.3502L47.9837 42.6897Z" fill="#505E63"/>
<path d="M46.0318 41.3502L29.8537 44.977C28.9705 45.175 28.1012 44.6276 27.9043 43.7495L28.6149 46.9193C28.8118 47.7974 29.6811 48.3448 30.5643 48.1468L46.7424 44.5199C47.6257 44.3219 48.1781 43.4558 47.9813 42.5777L47.2706 39.4079C47.446 40.2908 46.8935 41.157 46.0318 41.3502Z" fill="#404E51"/>
<path d="M66.0612 25.6359L61.2788 26.708L65.5136 45.5981L70.296 44.526L66.0612 25.6359Z" fill="#283034"/>
<path d="M70.1389 34.6413L61.3928 36.6021L67.1737 62.3885L75.9198 60.4278L70.1389 34.6413Z" fill="#283034"/>
<path d="M84.1113 82.435C82.8102 76.6309 80.9133 71.5002 78.8211 67.7179L77.5007 61.8281C77.2942 60.9072 76.4153 60.3169 75.532 60.515L72.3223 61.2345C72.0446 61.2068 71.7765 61.2219 71.4964 61.2847C71.2379 61.3427 70.9675 61.4483 70.7282 61.5919L67.5184 62.3115C66.6352 62.5095 66.0923 63.4185 66.2988 64.3394L67.6192 70.2292C67.3586 74.5164 67.8121 79.9707 69.118 85.7962C70.4192 91.6003 72.3161 96.731 74.4083 100.513L75.7287 106.403C75.9352 107.324 76.8141 107.914 77.6974 107.716L80.9502 106.987C81.2279 107.015 81.496 107 81.7761 106.937C82.0346 106.879 82.2835 106.778 82.5228 106.634L85.7326 105.915C86.6158 105.717 87.1586 104.808 86.9522 103.887L85.6318 97.9972C85.8924 93.7099 85.4173 88.2605 84.1113 82.435Z" fill="#283034"/>
<path d="M38.3877 29.6579L32.7795 34.5142L36.3037 50.2345L43.4484 52.2318L54.8441 49.677L49.7835 27.1032L38.3877 29.6579Z" fill="#283034"/>
<path d="M54.3244 26.6698L51.2439 27.3604L56.0549 48.8205L59.1354 48.1299L54.3244 26.6698Z" fill="#283034"/>
<path d="M39.7233 29.3583L38.3877 29.6577L43.4484 52.2316L44.784 51.9322L39.7233 29.3583Z" fill="#505E63"/>
<path d="M49.805 27.0981L45.6904 28.0205L50.7511 50.5944L54.8656 49.672L49.805 27.0981Z" fill="#505E63"/>
<path d="M142.558 89.1265C142.755 90.0046 142.203 90.8707 141.319 91.0687L115.857 96.777C114.973 96.975 114.104 96.4276 113.907 95.5495L111.78 86.0617C111.583 85.1835 112.491 85.9023 113.374 85.7043L138.837 79.996C139.72 79.798 140.234 78.7605 140.431 79.6386L142.558 89.1265Z" fill="#283034"/>
<path d="M163.175 10.8378C161.615 5.09168 156.527 2.88086 153.899 3.47005L110.125 13.2833C110.082 13.293 110.044 13.3241 110.001 13.3337L80.5095 19.9451C80.5095 19.9451 74.269 20.6693 74.5235 25.5384L74.7922 41.6736C74.7922 41.6736 74.1326 47.1075 77.8634 48.813L107.405 76.5381L109.83 87.3539C110.42 89.9882 113.028 91.6304 115.678 91.0364L139.03 85.8014C141.658 85.2122 143.337 82.6089 142.746 79.9746L142.391 78.3897L143.188 78.211C145.816 77.6218 147.495 75.0186 146.904 72.3843L146.246 69.4501C157.017 67.0354 167.638 64.6545 167.638 64.6545C170.891 63.9253 175.526 58.3648 176.719 55.5106C177.102 54.5926 177.259 53.68 177.256 52.7585C177.168 49.3367 167.805 22.7112 163.175 10.8378ZM159.699 52.5556L146.429 55.5305C143.801 56.1197 141.171 54.4823 140.581 51.848L135.439 28.91C134.853 26.2971 136.505 23.6773 139.155 23.0833L149.495 20.7652C151.348 20.3498 153.182 21.0633 154.325 22.4267C153.807 25.6693 154.773 31.1887 157.128 37.049C158.979 41.6727 161.315 45.5351 163.507 47.9454C163.451 50.1174 161.939 52.0534 159.699 52.5556Z" fill="#FFB700"/>
<path d="M155.202 19.778C153.81 18.1106 151.557 17.2436 149.273 17.7555L136.563 20.6049C133.332 21.3293 131.29 24.5314 132.015 27.7654L138.338 55.972C139.058 59.1846 142.272 61.2083 145.504 60.4839L161.789 56.8329C164.525 56.2196 166.391 53.8444 166.471 51.1722C163.773 48.223 160.919 43.4643 158.624 37.7705C155.742 30.5662 154.558 23.7688 155.202 19.778ZM159.785 52.536L146.515 55.5109C143.887 56.1001 141.258 54.4627 140.667 51.8284L135.525 28.8904C134.939 26.2775 136.592 23.6577 139.241 23.0637L149.581 20.7456C151.434 20.3302 153.268 21.0437 154.411 22.4071C153.894 25.6497 154.859 31.1691 157.214 37.0295C159.065 41.6531 161.402 45.5155 163.593 47.9258C163.516 50.1026 162.004 52.0386 159.785 52.536Z" fill="#FFB700"/>
<path d="M134.372 52.6101L103.588 59.5112L104.447 63.3449L135.231 56.4438L134.372 52.6101Z" fill="#FFB700"/>
<path d="M121.205 33.3378C121.368 34.066 120.83 34.794 120.011 34.9775L81.4079 43.6317C80.5893 43.8153 79.7918 43.3867 79.6286 42.6585C79.4653 41.9303 80.0035 41.2023 80.8221 41.0188L119.426 32.3646C120.244 32.1811 121.046 32.631 121.205 33.3378Z" fill="#B2BFC6"/>
<path d="M122.127 37.4501C122.29 38.1783 121.752 38.9063 120.933 39.0898L82.3297 47.744C81.5111 47.9276 80.7137 47.499 80.5505 46.7708C80.3872 46.0426 80.9254 45.3146 81.744 45.1311L120.347 36.4769C121.166 36.2934 121.963 36.7219 122.127 37.4501Z" fill="#B2BFC6"/>
<path d="M123.087 41.7337C123.25 42.4619 122.712 43.1898 121.893 43.3734L89.6449 50.6029C88.8263 50.7864 88.0289 50.3579 87.8656 49.6297C87.7024 48.9015 88.2406 48.1735 89.0592 47.99L121.286 40.7653C122.126 40.5769 122.929 41.0269 123.087 41.7337Z" fill="#B2BFC6"/>
<path d="M126.896 19.2634L125.35 12.367L112.145 15.3274C112.102 15.337 112.058 15.3467 112.015 15.3564L85.5449 21.3131C85.5449 21.3131 79.9436 21.9615 80.1571 26.3449L80.3435 37.1676L119.916 28.296L126.896 19.2634Z" fill="#B2BFC6"/>
<path d="M118.885 25.7153L80.3035 34.3647L80.2446 32.0836L118.396 23.5308L118.885 25.7153Z" fill="#86949B"/>
<path d="M121.968 16.8589C122.198 17.887 121.545 18.9106 120.511 19.1424C119.477 19.3742 118.45 18.7273 118.219 17.6992C117.989 16.6712 118.642 15.6476 119.676 15.4158C120.71 15.184 121.737 15.8309 121.968 16.8589Z" fill="#86949B"/>
<path d="M116.07 18.2037C116.301 19.2317 115.648 20.2553 114.614 20.4871C113.58 20.7189 112.552 20.072 112.322 19.044C112.091 18.0159 112.744 16.9923 113.778 16.7605C114.812 16.5287 115.84 17.1756 116.07 18.2037Z" fill="#86949B"/>
<path d="M87.2128 23.9082C87.4432 24.9362 86.7903 25.9598 85.7563 26.1916C84.7223 26.4234 83.6949 25.7765 83.4644 24.7485C83.234 23.7204 83.8869 22.6968 84.9209 22.465C85.9501 22.2118 86.9775 22.8587 87.2128 23.9082Z" fill="#86949B"/>
<path d="M103.588 59.5112L108.509 81.464C108.509 81.464 108.926 63.443 112.478 61.5222C116.012 59.6276 103.588 59.5112 103.588 59.5112Z" fill="#FFB700"/>
<path d="M80.5541 105.321L79.2337 99.4314C77.1678 95.6658 75.2494 90.5399 73.9434 84.7144C72.6422 78.9103 72.1672 73.4608 72.4445 69.1473L71.1241 63.2576C70.9177 62.3366 71.4605 61.4277 72.3438 61.2296C72.066 61.2019 71.7979 61.217 71.5179 61.2798C71.2594 61.3378 70.9889 61.4434 70.7496 61.587L67.5399 62.3066C66.6566 62.5046 66.1138 63.4136 66.3203 64.3345L67.6406 70.2243C67.38 74.5115 67.8336 79.9658 69.1395 85.7913C70.4407 91.5954 72.3375 96.7261 74.4298 100.508L75.7502 106.398C75.9567 107.319 76.8356 107.909 77.7188 107.711L80.9502 106.987C81.2279 107.015 81.496 107 81.776 106.937C82.0345 106.879 82.2834 106.778 82.5227 106.634C81.6395 106.832 80.7606 106.242 80.5541 105.321Z" fill="#3A4549"/>
<path d="M82.3138 59.984C82.5106 60.8621 81.9582 61.7282 81.0749 61.9262L63.1735 65.9394C62.2902 66.1374 61.4209 65.59 61.224 64.7119L60.8111 62.87C60.6143 61.9919 61.1667 61.1258 62.0499 60.9278L79.9514 56.9146C80.8346 56.7166 81.704 57.264 81.9008 58.1421L82.3138 59.984Z" fill="#1A2123"/>
<path d="M89.2632 105.415C89.4697 106.336 88.9268 107.245 88.0436 107.443L76.2816 110.08C75.3984 110.278 74.5194 109.688 74.313 108.767L74.1257 107.932C73.9193 107.011 74.4621 106.102 75.3453 105.904L87.1289 103.262C88.0121 103.064 88.891 103.654 89.0975 104.575L89.2847 105.411L89.2632 105.415Z" fill="#1A2123"/>
<path d="M65.3135 35.7231L61.3928 36.6021L66.6167 59.9041L70.5374 59.0252L66.5859 41.3987C66.8662 38.0068 70.1605 34.6365 70.1605 34.6365L65.3135 35.7231Z" fill="#3A4549"/>
<path d="M35.6218 47.1934L42.5985 48.441L53.9942 45.8863L54.8441 49.6772L43.4483 52.2319L36.3036 50.2346L35.6218 47.1934Z" fill="#191F21"/>
<path d="M43.9342 48.1415L42.5986 48.4409L43.4485 52.2318L44.7841 51.9324L43.9342 48.1415Z" fill="#394447"/>
<path d="M54.0159 45.8813L49.9014 46.8037L50.7512 50.5946L54.8658 49.6722L54.0159 45.8813Z" fill="#394447"/>
<path d="M77.8682 48.834L105.384 67.521L107.41 76.5592L77.8682 48.834Z" fill="#FFB700"/>
<path d="M176.502 49.598C176.527 50.5147 176.37 51.4273 175.966 52.3501C174.773 55.2043 170.163 60.7814 166.91 61.5106C166.91 61.5106 156.29 63.8915 145.519 66.3062L146.177 69.2404C146.763 71.8533 145.11 74.4731 142.46 75.0671L141.663 75.2458L142.019 76.8307C142.609 79.465 140.952 82.0635 138.302 82.6575L114.972 87.8877C112.344 88.4769 109.714 86.8395 109.124 84.2052L109.83 87.3535C110.42 89.9878 113.028 91.63 115.678 91.036L139.03 85.801C141.658 85.2118 143.337 82.6085 142.746 79.9742L142.391 78.3893L143.188 78.2107C145.816 77.6215 147.495 75.0182 146.904 72.3839L146.246 69.4497C157.017 67.035 167.638 64.6541 167.638 64.6541C170.891 63.9249 175.526 58.3644 176.719 55.5102C177.102 54.5922 177.259 53.6797 177.256 52.7581C177.244 52.1985 176.97 50.9777 176.526 49.3002C176.507 49.417 176.51 49.5289 176.502 49.598Z" fill="#FFB700"/>
<path d="M138.188 88.1042C138.582 89.8604 135.173 88.7803 133.406 89.1763L122.269 91.6731C120.502 92.0691 117.88 94.5014 117.486 92.7452L117.698 86.2196C117.304 84.4634 118.409 82.7311 120.175 82.3351L131.313 79.8383C133.079 79.4423 134.818 80.5371 135.212 82.2933L138.188 88.1042Z" fill="#283034"/>
<path d="M163.175 10.8376C161.615 5.09143 156.527 2.88061 153.899 3.46979L146.833 5.05383L148.614 12.9997C148.614 12.9997 156.996 14.1573 154.231 22.3124C154.263 22.3504 154.294 22.3884 154.325 22.4264C153.807 25.6691 154.773 31.1884 157.128 37.0488C158.979 41.6724 161.315 45.5349 163.507 47.9452C163.451 50.1172 161.94 52.0531 159.699 52.5554L146.429 55.5303C143.801 56.1194 141.172 54.4821 140.581 51.8477L140.062 49.5347L137.278 37.1126C137.081 36.2345 136.211 35.6871 135.328 35.8851L134.531 36.0638C133.648 36.2618 133.096 37.1279 133.292 38.006L141.099 72.8306C141.296 73.7087 142.166 74.2561 143.049 74.0581L143.437 73.9712L144.291 77.7835C146.218 76.7893 147.334 74.6045 146.84 72.3985L146.182 69.4643C156.953 67.0496 167.573 64.6688 167.573 64.6688C170.826 63.9395 175.462 58.379 176.655 55.5248C177.037 54.6068 177.195 53.6943 177.192 52.7727C177.168 49.3365 167.805 22.711 163.175 10.8376Z" fill="#283034"/>
<path d="M154.717 6.61528C154.976 7.77182 154.245 8.94809 153.081 9.20888C151.918 9.46966 150.737 8.74462 150.473 7.56667C150.214 6.41014 150.951 5.25528 152.135 4.98966C153.277 4.73371 154.458 5.45875 154.717 6.61528Z" fill="#B2BFC6"/>
<path d="M135.438 39.5046L138.396 52.6976L138.948 55.1606C139.572 57.9449 142.795 59.6066 146.156 58.8532L163.045 55.067C165.889 54.4295 167.877 52.2968 168.076 49.9577C165.415 47.4727 162.65 43.4139 160.516 38.5387C157.795 32.3556 156.812 26.4577 157.636 22.9664C157.605 22.9284 157.552 22.8952 157.521 22.8572C161.37 13.9867 150.478 11.5247 150.478 11.5247L148.937 4.64977L146.869 5.1134L148.65 13.0592C148.65 13.0592 157.032 14.2168 154.267 22.372C154.299 22.41 154.33 22.448 154.356 22.4646C153.839 25.7072 154.804 31.2266 157.159 37.0869C159.01 41.7106 161.347 45.573 163.538 47.9833C163.461 50.1601 161.949 52.0961 159.73 52.5935L146.46 55.5684C143.832 56.1576 141.203 54.5202 140.612 51.8859L140.094 49.5728L137.309 37.1508C137.112 36.2726 136.243 35.7252 135.359 35.9232L134.562 36.1019C133.679 36.2999 133.127 37.1661 133.323 38.0442L133.362 38.2155C134.348 38.1744 135.251 38.6693 135.438 39.5046Z" fill="#1A2123"/>
</svg>
