<svg width="63" height="90" viewBox="0 0 63 90" fill="none" xmlns="http://www.w3.org/2000/svg">
<path d="M24.2313 0.0843083L35.3859 4.38036C36.1396 4.68184 36.5165 5.5109 36.215 6.2646C35.9135 7.01829 32.6349 7.43283 31.9189 7.13135L31.6551 7.01829L6.44408 72.5143L0.678324 77.3002L0 70.0271L25.2111 4.56879L24.9473 4.45573C24.1936 4.15425 22.0455 1.66707 22.347 0.913373C22.6108 0.197364 23.4776 -0.179485 24.2313 0.0843083Z" fill="#AAA5A8"/>
<path d="M25.6255 2.72227C29.5448 4.22966 33.2755 4.94566 35.9888 4.83261C36.2903 5.20946 36.3657 5.73704 36.1773 6.22694C35.8758 6.98064 32.5972 7.39517 31.8435 7.09369L24.8719 4.41808C24.2312 4.15429 22.4977 2.23237 22.2716 1.25256C23.3268 1.78015 24.4196 2.27005 25.6255 2.72227Z" fill="#898888"/>
<path d="M0.678345 77.3003L6.51947 72.2882L31.6552 7.01831L28.2259 5.69934L0.678345 77.3003Z" fill="#898888"/>
<path d="M2.11036 12.671L13.7926 10.0707C14.584 9.8823 15.3754 10.3722 15.5261 11.1636C15.7145 11.955 13.1897 14.103 12.436 14.2914L12.1722 14.3668L27.5098 82.8399L25.3618 90L20.802 84.3473L5.42661 15.8365L5.16282 15.9119C4.37144 16.1003 1.20592 15.1958 1.0175 14.4045C0.829077 13.6508 1.31898 12.8594 2.11036 12.671Z" fill="#AAA5A8"/>
<path d="M4.74829 14.103C8.85593 13.1986 12.3606 11.6912 14.5463 10.1085C14.9985 10.2592 15.3754 10.636 15.4884 11.1636C15.6769 11.955 13.152 14.103 12.3983 14.2915L5.12514 15.9119C4.44682 16.0626 1.95963 15.422 1.20593 14.7437C2.29879 14.5553 3.5047 14.3668 4.74829 14.103Z" fill="#898888"/>
<path d="M25.3241 89.9623L27.4345 82.5761L12.1345 14.3291L8.55444 15.1205L25.3241 89.9623Z" fill="#898888"/>
<path d="M57.2807 11.7289H46.0507C45.1839 11.7289 44.4679 12.3695 44.4679 13.1232V29.1015C44.4679 29.8552 45.1839 36.7515 46.0507 36.7515H46.2391V74.8131L51.6657 86.8345L56.9038 74.8131V36.7515H57.3184C58.1851 36.7515 58.9011 29.8552 58.9011 29.1015V13.1232C58.8634 12.3695 58.1474 11.7289 57.2807 11.7289Z" fill="#AAA5A8"/>
<path d="M61.2377 7.20679H53.3615V8.97797C53.3615 9.84472 52.6455 10.5607 51.7788 10.5607H50.9874C50.1207 10.5607 49.4046 9.84472 49.4046 8.97797V7.20679H41.5286C40.6618 7.20679 39.9458 7.9228 39.9458 8.78954V14.706C39.9458 15.5728 40.6618 16.2888 41.5286 16.2888H61.2377C62.1044 16.2888 62.8204 15.5728 62.8204 14.706V8.78954C62.8204 7.9228 62.1044 7.20679 61.2377 7.20679Z" fill="#FFB700"/>
<path d="M58.8636 36.1486C58.9013 37.0154 58.2606 37.7691 57.3562 37.8067L46.1261 38.4097C45.2594 38.4474 44.5057 37.8067 44.468 36.9023V36.6385C44.4303 35.7718 45.071 35.0181 45.9754 34.9804L57.2054 34.3774C58.0722 34.3397 58.8259 34.9804 58.8636 35.8471V36.1486Z" fill="#898888"/>
<path d="M58.8635 41.6129V41.8767C58.9012 42.7434 58.2605 43.4971 57.3561 43.5348L46.1637 44.1378C45.297 44.1754 44.5433 43.5348 44.5056 42.6304V42.3666C44.4679 41.4998 45.1086 40.7461 46.013 40.7085L57.243 40.1055C58.0721 40.0678 58.7881 40.7461 58.8635 41.6129Z" fill="#898888"/>
<path d="M58.8636 47.3409V47.6047C58.9013 48.4715 58.2606 49.2252 57.3562 49.2628L46.1261 49.8658C45.2594 49.9035 44.5057 49.2628 44.468 48.3584V48.0946C44.4303 47.2279 45.071 46.4742 45.9754 46.4365L57.2054 45.8335C58.0722 45.7958 58.7882 46.4742 58.8636 47.3409Z" fill="#898888"/>
<path d="M58.8636 53.069V53.3328C58.9013 54.1996 58.2606 54.9533 57.3562 54.991L46.1261 55.5939C45.2594 55.6316 44.5057 54.9533 44.468 54.0865V53.8227C44.4303 52.956 45.071 52.2023 45.9754 52.1646L57.2054 51.5616C58.0722 51.5616 58.7882 52.2023 58.8636 53.069Z" fill="#898888"/>
<path d="M58.8636 58.7971V59.0609C58.9013 59.9276 58.2606 60.6813 57.3562 60.719L46.1261 61.3219C45.2594 61.3596 44.5057 60.719 44.468 59.8146V59.5508C44.4303 58.684 45.071 57.9303 45.9754 57.8926L57.2054 57.2897C58.0722 57.2897 58.7882 57.9303 58.8636 58.7971Z" fill="#898888"/>
<path d="M58.8636 64.5252V64.789C58.9013 65.6557 58.2606 66.4094 57.3562 66.4471L46.1261 67.0501C45.2594 67.0877 44.5057 66.4471 44.468 65.5803V65.3166C44.4303 64.4498 45.071 63.6961 45.9754 63.6584L57.2054 63.0555C58.0722 63.0178 58.7882 63.6584 58.8636 64.5252Z" fill="#898888"/>
<path d="M58.8636 70.2532V70.517C58.9013 71.3838 58.2606 72.1375 57.3562 72.1752L46.1261 72.7781C45.2594 72.8158 44.5057 72.1752 44.468 71.2707V71.0069C44.4303 70.1402 45.071 69.3865 45.9754 69.3488L57.2054 68.7458C58.0722 68.7458 58.7882 69.3865 58.8636 70.2532Z" fill="#898888"/>
<path d="M58.8636 76.2451C58.9013 77.1119 58.2606 77.8656 57.3562 77.9032L46.1261 78.5062C45.2594 78.5439 44.5057 77.9032 44.468 76.9988V76.735C44.4303 75.8683 45.071 75.1146 45.9754 75.0769L57.2054 74.4739C58.0722 74.4362 58.8259 75.0769 58.8636 75.9813V76.2451Z" fill="#898888"/>
</svg>
