<svg width="101" height="102" viewBox="0 0 101 102" fill="none" xmlns="http://www.w3.org/2000/svg">
<path d="M34.7607 8.06507L38.244 2.24772L44.0419 5.79438L48.6604 0.821922L53.5795 5.48776L59.1376 1.59959L62.9928 7.18362L69.2342 4.52836L71.8396 10.7877L78.4989 9.48902L79.7352 16.1707L86.5202 16.2776L86.3545 23.0555L92.9594 24.5793L91.3893 31.1727L97.5358 34.0446L94.6255 40.1627L100.042 44.255L95.9242 49.6389L100.372 54.7561L95.2118 59.163L98.5179 65.0996L92.5589 68.3434L94.5408 74.8271L88.0391 76.7592L88.6276 83.5192L81.862 84.0533L81.05 90.7964L74.3219 89.9085L72.1149 96.3369L65.7229 94.0745L62.2272 99.8963L56.4417 96.3451L51.8108 101.322L46.8872 96.6438L41.3336 100.544L37.4784 94.9604L31.237 97.6157L28.6441 91.3519L21.9723 92.655L20.736 85.9733L13.951 85.8665L14.1292 79.084L7.51181 77.5647L9.08992 70.9543L2.93541 68.0994L5.85366 61.9644L0.428829 57.8891L4.55952 52.5006L0.0992818 47.3879L5.25938 42.981L1.95325 37.0444L7.9248 33.7961L5.93038 27.3169L12.4321 25.3848L11.8436 18.6248L18.6047 18.0782L19.4212 11.3476L26.1618 12.231L28.3563 5.80716L34.7607 8.06507Z" fill="#FFB700"/>
</svg>
